# xmcd
#
# Track frame offsets:
#	150
#	9206
#	20511
#	37064
#	47314
#	62801
#	73707
#	88892
#	105505
#	122569
#	134904
#	143963
#	156950
#	172284
#	184172
#
# Disc length: 2629 seconds
#
# Revision: 0
# Processed by: cddbd v1.5.2PL0 Copyright (c) Steve Scherf et al.
# Submitted via: dBpowerAMP V4.0
#
DISCID=d80a430f
DTITLE=Jan Rasmussen - Bedre Sent End Aldrig 6
DYEAR=1900
DGENRE=Country
TTITLE0=Når birken springer ud
TTITLE1=Hjem til Øen
TTITLE2=Du er den eneste
TTITLE3=God morgen
TTITLE4=Når du skriver en sang
TTITLE5=Verdens bedste job
TTITLE6=Alle tiders pige
TTITLE7=Snefuglen
TTITLE8=Alt hvad jeg har
TTITLE9=Lad os følges ad
TTITLE10=Det var dig jeg vil ha'
TTITLE11=Jeg undre mig så tit
TTITLE12=Bliv hos mig kære
TTITLE13=Vild med dig
TTITLE14=Du har dine drømme
EXTD=Bedre Sent End Aldrig 6
EXTT0=
EXTT1=
EXTT2=
EXTT3=
EXTT4=
EXTT5=
EXTT6=
EXTT7=
EXTT8=
EXTT9=
EXTT10=
EXTT11=
EXTT12=
EXTT13=
EXTT14=
PLAYORDER=
